<svg width="410" height="120" viewBox="0 0 410 120" fill="none" xmlns="http://www.w3.org/2000/svg"><circle cx="59" cy="60" r="54" fill="#294638"/><path d="M28 69C28 47 45 29 67 29c10 0 19 4 26 11-13 2-23 10-30 21-6 12-5 24 0 34-20-2-35-13-35-26Z" fill="#F1E7D1"/><path d="M57 91c15-19 19-39 18-57 15 16 15 38 3 53-5 7-13 11-21 13Z" fill="#A9BD69"/><text x="124" y="56" font-family="Georgia, serif" font-size="37" font-weight="700" fill="#FBF8F1">CocoEsencia</text><text x="126" y="85" font-family="Arial, sans-serif" font-size="14" letter-spacing="3.4" fill="#E5B65E">JABONES ARTESANALES</text></svg>